# xmcd CD database file
#
# Track frame offsets:
#	182
#	13540
#	25570
#	38245
#	49930
#	63970
#	79497
#	93520
#	106650
#	119467
#	129240
#	139937
#	151747
#	162652
#	175207
#	187110
#	200177
#
# Disc length: 2856 seconds
#
# Revision: 1
# Processed by: cddbd v1.5.2PL0 Copyright (c) Steve Scherf et al.
# Submitted via: CDex 1.51
#
DISCID=e70b2611
DTITLE=Charles Aznavour - J'aime Paris au mois de mai
DYEAR=1992
DGENRE=Chanson
TTITLE0=Believe in me
TTITLE1=I look at you
TTITLE2=I' gonna sleep with one eye open
TTITLE3=I want to be kissed
TTITLE4=Cry upon my shoulder
TTITLE5=Juventud divino tesoro
TTITLE6=Vivir junto a ti
TTITLE7=Esto es formidable
TTITLE8=Mi ultima mora
TTITLE9=Quand tu vas revenir
TTITLE10=Parce que
TTITLE11=J'aime Paris au mois de mai
TTITLE12=A tout jamais
TTITLE13=Mon amour protege-moi
TTITLE14=Mon amour
TTITLE15=L'emigrant
TTITLE16=Les chercheurs d'or
EXTD=YEAR: 1992
EXTT0=
EXTT1=
EXTT2=
EXTT3=
EXTT4=
EXTT5=
EXTT6=
EXTT7=
EXTT8=
EXTT9=
EXTT10=
EXTT11=
EXTT12=
EXTT13=
EXTT14=
EXTT15=
EXTT16=
PLAYORDER=
